:version 1.10
:name ASF
:units
  mass 1
  length 1
  angle deg
:documentation
  ASF file generated by Kaydara
:root
  axis xyz
  order  tx ty tz rx ry rz
  position 0 0 0
  orientation 0 0 0
:bonedata
  begin
    id 1
    name lfemurDummy
    direction 0.61522 -0.761478 0.204097
    length 5.68318
    axis 0 -0 0 xyz
  end
  begin
    id 2
    name lfemur
    direction 0.34202 -0.939693 -5.84747e-008
    length 16.9147
    axis 0 -0 20 xyz
    dof rx ry rz
    limits( -inf , inf )
( -inf , inf )
( -inf , inf )

  end
  begin
    id 3
    name ltibia
    direction 0.34202 -0.939693 1.20839e-009
    length 18.0532
    axis 0 -0 20 xyz
    dof rz ry rx
    limits( -inf , inf )
( -inf , inf )
( -inf , inf )

  end
  begin
    id 4
    name lfoot
    direction 0.0841971 -0.23133 0.969225
    length 5.23822
    axis -90 7.62852e-016 20 xyz
    dof ry rx rz
    limits( -inf , inf )
( -inf , inf )
( -inf , inf )

  end
  begin
    id 5
    name ltoes
    direction 0 0 0
    length 0
    axis 0 0 0 xyz
    dof rz ry rx
    limits( -inf , inf )
( -inf , inf )
( -inf , inf )

  end
  begin
    id 6
    name rfemurDummy
    direction -0.625247 -0.75382 0.202044
    length 5.74091
    axis 0 -0 0 xyz
  end
  begin
    id 7
    name rfemur
    direction -0.34202 -0.939693 -1.47013e-008
    length 16.4922
    axis 0 -0 -20 xyz
    dof rx ry rz
    limits( -inf , inf )
( -inf , inf )
( -inf , inf )

  end
  begin
    id 8
    name rtibia
    direction -0.34202 -0.939693 -7.74345e-010
    length 18.2421
    axis 0 -0 -20 xyz
    dof rz ry rx
    limits( -inf , inf )
( -inf , inf )
( -inf , inf )

  end
  begin
    id 9
    name rfoot
    direction -0.124331 -0.341598 0.931586
    length 5.45787
    axis -90 -7.62852e-016 -20 xyz
    dof ry rx rz
    limits( -inf , inf )
( -inf , inf )
( -inf , inf )

  end
  begin
    id 10
    name rtoes
    direction 0 0 0
    length 0
    axis 0 0 0 xyz
    dof rz ry rx
    limits( -inf , inf )
( -inf , inf )
( -inf , inf )

  end
  begin
    id 11
    name lowerbackDummy
    direction 0 0 0
    length 0
    axis 0 -0 0 xyz
  end
  begin
    id 12
    name lowerback
    direction -0.0218484 0.994884 -0.0986304
    length 4.45607
    axis 0 -0 0 xyz
    dof rx ry rz
    limits( -inf , inf )
( -inf , inf )
( -inf , inf )

  end
  begin
    id 13
    name upperback
    direction -0.00973057 0.999717 -0.0217111
    length 4.47449
    axis 0 -0 0 xyz
    dof rx ry rz
    limits( -inf , inf )
( -inf , inf )
( -inf , inf )

  end
  begin
    id 14
    name thorax
    direction -0.000928171 0.999699 0.0245198
    length 4.50973
    axis 0 -0 0 xyz
    dof rx ry rz
    limits( -inf , inf )
( -inf , inf )
( -inf , inf )

  end
  begin
    id 15
    name rclavicle
    direction -0.9009 0.425937 -0.0834055
    length 7.28587
    axis 0 -0 0 xyz
    dof rx ry rz
    limits( -inf , inf )
( -inf , inf )
( -inf , inf )

  end
  begin
    id 16
    name rhumerus
    direction -1 -2.23604e-007 -1.42637e-007
    length 13.5704
    axis 180 30 90 xyz
    dof rx ry rz
    limits( -inf , inf )
( -inf , inf )
( -inf , inf )

  end
  begin
    id 17
    name rradius
    direction -1 5.68281e-008 -4.4952e-007
    length 8.06782
    axis 180 30 90 xyz
    dof rz ry rx
    limits( -inf , inf )
( -inf , inf )
( -inf , inf )

  end
  begin
    id 18
    name rwrist
    direction -1 1.51393e-007 1.38143e-007
    length 4.03391
    axis -90 -90 0 xyz
    dof rz rx ry
    limits( -inf , inf )
( -inf , inf )
( -inf , inf )

  end
  begin
    id 19
    name rthumb
    direction 0 0 0
    length 0
    axis 0 0 0 xyz
    dof ry rx rz
    limits( -inf , inf )
( -inf , inf )
( -inf , inf )

  end
  begin
    id 20
    name rhand
    direction -1 -3.34077e-007 -5.59631e-007
    length 1.29744
    axis -90 -90 0 xyz
    dof ry rx rz
    limits( -inf , inf )
( -inf , inf )
( -inf , inf )

  end
  begin
    id 21
    name rfingers
    direction 0 0 0
    length 0
    axis 0 0 0 xyz
    dof rz ry rx
    limits( -inf , inf )
( -inf , inf )
( -inf , inf )

  end
  begin
    id 22
    name lclavicle
    direction 0.940017 0.332249 -0.0773232
    length 8.29589
    axis 0 -0 0 xyz
    dof rx ry rz
    limits( -inf , inf )
( -inf , inf )
( -inf , inf )

  end
  begin
    id 23
    name lhumerus
    direction 1 7.41158e-008 -1.44768e-008
    length 12.0042
    axis 180 -30 -90 xyz
    dof rx ry rz
    limits( -inf , inf )
( -inf , inf )
( -inf , inf )

  end
  begin
    id 24
    name lradius
    direction 1 -1.32972e-007 3.10821e-007
    length 8.1902
    axis 180 -30 -90 xyz
    dof rz ry rx
    limits( -inf , inf )
( -inf , inf )
( -inf , inf )

  end
  begin
    id 25
    name lwrist
    direction 1 3.08957e-007 4.01394e-007
    length 4.09509
    axis -90 90 0 xyz
    dof rz rx ry
    limits( -inf , inf )
( -inf , inf )
( -inf , inf )

  end
  begin
    id 26
    name lthumb
    direction 0 0 0
    length 0
    axis 0 0 0 xyz
    dof ry rx rz
    limits( -inf , inf )
( -inf , inf )
( -inf , inf )

  end
  begin
    id 27
    name lhand
    direction 1 -1.64125e-007 -6.99514e-007
    length 1.37229
    axis -90 90 0 xyz
    dof ry rx rz
    limits( -inf , inf )
( -inf , inf )
( -inf , inf )

  end
  begin
    id 28
    name lfingers
    direction 0 0 0
    length 0
    axis 0 0 0 xyz
    dof rz ry rx
    limits( -inf , inf )
( -inf , inf )
( -inf , inf )

  end
  begin
    id 29
    name lowerneck
    direction -0.030798 0.998024 0.0547665
    length 3.93918
    axis 0 -0 0 xyz
    dof rx ry rz
    limits( -inf , inf )
( -inf , inf )
( -inf , inf )

  end
  begin
    id 30
    name upperneck
    direction 0.0531588 0.996611 -0.0627736
    length 3.95491
    axis 0 -0 0 xyz
    dof rx ry rz
    limits( -inf , inf )
( -inf , inf )
( -inf , inf )

  end
  begin
    id 31
    name head
    direction 0 0 0
    length 0
    axis 0 0 0 xyz
    dof rx ry rz
    limits( -inf , inf )
( -inf , inf )
( -inf , inf )

  end
:hierarchy
  begin
    root lfemurDummy rfemurDummy lowerbackDummy
    lfemurDummy lfemur
    lfemur ltibia
    ltibia lfoot
    lfoot ltoes
    rfemurDummy rfemur
    rfemur rtibia
    rtibia rfoot
    rfoot rtoes
    lowerbackDummy lowerback
    lowerback upperback
    upperback thorax
    thorax rclavicle lclavicle lowerneck
    rclavicle rhumerus
    rhumerus rradius
    rradius rwrist
    rwrist rthumb rhand
    rhand rfingers
    lclavicle lhumerus
    lhumerus lradius
    lradius lwrist
    lwrist lthumb lhand
    lhand lfingers
    lowerneck upperneck
    upperneck head
  end

:SAMPLES-PER-SECOND 30
:FULLY-SPECIFIED
:DEGREES
67
root  -0.8642600277 37.53844434 9.75691127 10.87399292 20.38000488 -0.9839935303
lowerback  15.1559 6.504059792 -0.3550139964
upperback  4.204730034 8.282730103 -6.434649944
thorax  -3.006099939 4.185820103 -8.052160263
lowerneck  3.012830019 -0.8599100113 -8.566360474
upperneck  11.12839985 -2.396780014 16.13150024
head  3.003099918 -0.9535130262 6.382540226
lclavicle  0 -9.442270133e-015 7.951389973e-016
lhumerus  15.57069969 -12.8277998 65.86940002
lradius  1.969672294e-031 -2.930739683e-031 123.9039993
lwrist  -7.062250077e-031 -0 16.76729965
lhand  -1.496451383e-031 -27.76390076 20.11240005
lfingers  90 7.125020027 -90
lthumb  89.89689403 5.08795885 91.16245106
rclavicle  0 -9.442270133e-015 7.951389973e-016
rhumerus  39.82960129 -25.94630051 -24.61059952
rradius  3.026533197e-031 1.819049434e-031 31.00729942
rwrist  7.062250077e-031 -3.531125038e-031 5.154019833
rhand  -7.920061211e-032 -33.2840004 9.303460121
rfingers  -90 -7.125020027 -90
rthumb  -92.93752616 -24.25625642 -97.11982154
rfemur  -1.812000036 -3.635139942 24.83569908
rtibia  -0 0 44.09560013
rfoot  -0 -33.21350098 -30.80590057
rtoes  5.373923086 19.29304026 -105.8922705
lfemur  -60.4978981 -13.79189968 -8.165920258
ltibia  -0 0 46.25780106
lfoot  -0 7.616360188 -8.41339016
ltoes  -4.250644065 -19.5611806 -102.515957
68
root  -1.003137818 37.45822156 9.744089232 10.69799805 21.23199463 -1.458999634
lowerback  15.37049961 6.503310204 0.05208760127
upperback  4.164929867 8.338470459 -6.319210052
thorax  -3.11522007 4.209519863 -8.196169853
lowerneck  2.679579973 -0.9495239854 -7.625689983
upperneck  11.3434 -2.50496006 15.96889973
head  3.128420115 -0.9509729743 6.163670063
lclavicle  0 -9.442270133e-015 7.951389973e-016
lhumerus  14.60210037 -13.37520027 65.62660217
lradius  2.023198765e-031 -2.894047476e-031 124.9570007
lwrist  0 -1.765562519e-031 16.2166996
lhand  -1.496451383e-031 -27.76390076 20.11240005
lfingers  90 7.125020027 -90
lthumb  89.89689403 5.08795885 91.16245106
rclavicle  0 -9.442270133e-015 7.951389973e-016
rhumerus  39.99250031 -26.50390053 -26.41589928
rradius  2.971143526e-031 1.90817981e-031 32.71009827
rwrist  3.531125038e-031 -0 2.256759882
rhand  -7.920061211e-032 -33.2840004 9.303460121
rfingers  -90 -7.125020027 -90
rthumb  -92.93752616 -24.25625642 -97.11982154
rfemur  -2.369119883 -3.261640072 24.73570061
rtibia  -0 0 45.0707016
rfoot  -0 -32.56689835 -29.65360069
rtoes  5.373923086 19.29304026 -105.8922705
lfemur  -60.54909897 -13.66489983 -8.239500046
ltibia  -0 0 46.48590088
lfoot  -0 6.652729988 -8.022950172
ltoes  -4.250644065 -19.5611806 -102.515957
69
root  -1.129891084 37.36399853 9.72926673 10.40899658 22.07899475 -1.998001099
lowerback  15.60299969 6.439499855 0.4385870099
upperback  4.109399796 8.309220314 -6.180300236
thorax  -3.268810034 4.187670231 -8.294879913
lowerneck  2.511889935 -1.001270056 -6.64620018
upperneck  11.4364996 -2.565639973 15.87110043
head  3.183320045 -0.9309080243 5.95938015
lclavicle  0 -9.442270133e-015 7.951389973e-016
lhumerus  13.63679981 -13.69909954 65.45729828
lradius  2.081123495e-031 -2.852677521e-031 126.1119995
lwrist  -7.062250077e-031 -0 16.00670052
lhand  -1.496451383e-031 -27.76390076 20.11240005
lfingers  90 7.125020027 -90
lthumb  89.89689403 5.08795885 91.16245106
rclavicle  0 -9.442270133e-015 7.951389973e-016
rhumerus  39.49959946 -26.34600067 -27.47500038
rradius  2.879724123e-031 2.043534441e-031 35.36059952
rwrist  7.062250077e-031 -3.531125038e-031 -1.283710003
rhand  -7.920061211e-032 -33.2840004 9.303460121
rfingers  -90 -7.125020027 -90
rthumb  -92.93752616 -24.25625642 -97.11982154
rfemur  -2.859410048 -2.971750021 24.61809921
rtibia  -0 0 46.17559814
rfoot  -0 -32.06370163 -27.73699951
rtoes  5.373923086 19.29304026 -105.8922705
lfemur  -60.55279922 -13.46959972 -8.345809937
ltibia  -0 0 46.61920166
lfoot  -0 5.799550056 -7.790679932
ltoes  -4.250644065 -19.5611806 -102.515957
70
root  -1.264295522 37.26022075 9.716355331 9.930999756 22.7749939 -2.5
lowerback  15.88510036 6.378399849 0.5238729715
upperback  4.16174984 8.24271965 -5.960619926
thorax  -3.395299911 4.147739887 -8.130270004
lowerneck  2.127449989 -0.9447829723 -6.096590042
upperneck  11.63370037 -2.517149925 16.07839966
head  3.297610044 -0.8514879942 5.932260036
lclavicle  0 -9.442270133e-015 7.951389973e-016
lhumerus  12.71850014 -13.66919994 65.40100098
lradius  2.14232013e-031 -2.807010598e-031 127.3509979
lwrist  -7.062250077e-031 1.765562519e-031 15.96720028
lhand  -1.496451383e-031 -27.76390076 20.11240005
lfingers  90 7.125020027 -90
lthumb  89.89689403 5.08795885 91.16245106
rclavicle  0 -9.442270133e-015 7.951389973e-016
rhumerus  38.62659836 -25.70459938 -27.88489914
rradius  2.760088585e-031 2.202442971e-031 38.58850098
rwrist  1.059337512e-030 -1.765562519e-031 -4.224199772
rhand  -7.920061211e-032 -33.2840004 9.303460121
rfingers  -90 -7.125020027 -90
rthumb  -92.93752616 -24.25625642 -97.11982154
rfemur  -3.181570053 -2.602950096 24.44639969
rtibia  -0 0 47.2322998
rfoot  -0 -31.61459923 -26.1779995
rtoes  5.373923086 19.29304026 -105.8922705
lfemur  -60.35229874 -13.27760029 -8.454759598
ltibia  -0 0 46.72449875
lfoot  -0 5.041659832 -7.672520161
ltoes  -4.250644065 -19.5611806 -102.515957
71
root  -1.403866697 37.17088774 9.71780011 9.326004028 23.28399658 -3.026992798
lowerback  16.05389977 6.332479954 0.300289005
upperback  4.31512022 8.15956974 -5.58784008
thorax  -3.423540115 4.101699829 -7.600880146
lowerneck  1.51165998 -0.7424939871 -6.236289978
upperneck  12.04300022 -2.322089911 16.6352005
head  3.502979994 -0.6978700161 6.147170067
lclavicle  0 -9.442270133e-015 7.951389973e-016
lhumerus  11.64820004 -13.19719982 65.46849823
lradius  2.208098268e-031 -2.75556638e-031 128.7059937
lwrist  -7.062250077e-031 -0 16.3125
lhand  -1.496451383e-031 -27.76390076 20.11240005
lfingers  90 7.125020027 -90
lthumb  89.89689403 5.08795885 91.16245106
rclavicle  0 -9.442270133e-015 7.951389973e-016
rhumerus  38.14379883 -24.76880074 -28.58499908
rradius  2.634237142e-031 2.351518385e-031 41.75450134
rwrist  7.062250077e-031 -3.531125038e-031 -5.02380991
rhand  -7.920061211e-032 -33.2840004 9.303460121
rfingers  -90 -7.125020027 -90
rthumb  -92.93752616 -24.25625642 -97.11982154
rfemur  -3.369339943 -2.157079935 24.25769997
rtibia  -0 0 48.12170029
rfoot  -0 -31.26889992 -25.73060036
rtoes  5.373923086 19.29304026 -105.8922705
lfemur  -60.06930161 -13.09809971 -8.377639771
ltibia  -0 0 46.94169998
lfoot  -0 4.403180122 -7.709259987
ltoes  -4.250644065 -19.5611806 -102.515957
72
root  -1.539593325 37.09244315 9.719711214 8.720993042 23.79499817 -3.542007446
lowerback  16.17259979 6.26019001 0.0376944989
upperback  4.433370113 8.037210464 -5.172450066
thorax  -3.477210045 4.034130096 -6.995880127
lowerneck  1.268069983 -0.5638200045 -6.369559765
upperneck  12.23840046 -2.121579885 16.95170021
head  3.579099894 -0.5740519762 6.282539845
lclavicle  0 -9.442270133e-015 7.951389973e-016
lhumerus  10.5461998 -12.57540035 65.66619873
lradius  2.270990725e-031 -2.703968411e-031 130.026001
lwrist  0 1.765562519e-031 16.82360077
lhand  -1.496451383e-031 -27.76390076 20.11240005
lfingers  90 7.125020027 -90
lthumb  89.89689403 5.08795885 91.16245106
rclavicle  0 -9.442270133e-015 7.951389973e-016
rhumerus  37.90159988 -23.67760086 -29.63229942
rradius  2.514166399e-031 2.479478041e-031 44.60200119
rwrist  1.059337512e-030 -0 -4.234749794
rhand  -7.920061211e-032 -33.2840004 9.303460121
rfingers  -90 -7.125020027 -90
rthumb  -92.93752616 -24.25625642 -97.11982154
rfemur  -3.534039974 -1.947649956 23.96559906
rtibia  -0 0 48.85620117
rfoot  -0 -31.10589981 -25.73690033
rtoes  5.373923086 19.29304026 -105.8922705
lfemur  -60.00019836 -13.11530018 -8.000599861
ltibia  -0 0 47.35409927
lfoot  -0 4.123980045 -7.897270203
ltoes  -4.250644065 -19.5611806 -102.515957
73
root  -1.670908928 36.98955446 9.703799871 8.151992798 24.45899963 -4.130004883
lowerback  16.19490051 6.180180073 -0.07282570004
upperback  4.553420067 7.93569994 -4.714719772
thorax  -3.457969904 3.979549885 -6.42181015
lowerneck  1.31843996 -0.5106390119 -6.280690193
upperneck  12.13309956 -2.033620119 16.89229965
head  3.527960062 -0.535548985 6.24751997
lclavicle  0 -9.442270133e-015 7.951389973e-016
lhumerus  9.677339554 -12.11159992 66.01290131
lradius  2.326146777e-031 -2.656668065e-031 131.2050018
lwrist  -7.062250077e-031 8.827812596e-032 17.22820091
lhand  -1.496451383e-031 -27.76390076 20.11240005
lfingers  90 7.125020027 -90
lthumb  89.89689403 5.08795885 91.16245106
rclavicle  0 -9.442270133e-015 7.951389973e-016
rhumerus  37.19329834 -22.55459976 -29.94400024
rradius  2.397536722e-031 2.592423905e-031 47.23659897
rwrist  1.059337512e-030 -0 -3.507460117
rhand  -7.920061211e-032 -33.2840004 9.303460121
rfingers  -90 -7.125020027 -90
rthumb  -92.93752616 -24.25625642 -97.11982154
rfemur  -3.823719978 -2.027650118 23.70059967
rtibia  -0 0 49.52339935
rfoot  -0 -31.20840073 -25.20829964
rtoes  5.373923086 19.29304026 -105.8922705
lfemur  -60.33039856 -13.27700043 -7.367320061
ltibia  -0 0 47.99219894
lfoot  -0 4.151060104 -8.223250389
ltoes  -4.250644065 -19.5611806 -102.515957
74
root  -1.801837711 36.85577873 9.678311235 7.56199646 25.11700439 -4.718994141
lowerback  16.16360092 6.132599831 -0.1430830061
upperback  4.672090054 7.884950161 -4.279129982
thorax  -3.395819902 3.952039957 -5.897749901
lowerneck  1.573840022 -0.5040079951 -6.143109798
upperneck  11.91170025 -1.998360038 16.83239937
head  3.413579941 -0.5336679816 6.200429916
lclavicle  0 -9.442270133e-015 7.951389973e-016
lhumerus  8.921480179 -11.78339958 66.32689667
lradius  2.375579471e-031 -2.612559322e-031 132.2799988
lwrist  -7.062250077e-031 1.765562519e-031 17.61120033
lhand  -1.496451383e-031 -27.76390076 20.11240005
lfingers  90 7.125020027 -90
lthumb  89.89689403 5.08795885 91.16245106
rclavicle  0 -9.442270133e-015 7.951389973e-016
rhumerus  36.06259918 -21.45159912 -29.80890083
rradius  2.28142703e-031 2.695168778e-031 49.75249863
rwrist  1.059337512e-030 -1.765562519e-031 -3.153539896
rhand  -7.920061211e-032 -33.2840004 9.303460121
rfingers  -90 -7.125020027 -90
rthumb  -92.93752616 -24.25625642 -97.11982154
rfemur  -4.119050026 -2.16072011 23.43160057
rtibia  -0 0 50.24810028
rfoot  -0 -31.48509979 -24.00349998
rtoes  5.373923086 19.29304026 -105.8922705
lfemur  -60.79710007 -13.31630039 -6.825339794
ltibia  -0 0 48.79299927
lfoot  -0 4.228600025 -8.643230438
ltoes  -4.250644065 -19.5611806 -102.515957
75
root  -1.9301223 36.72133318 9.659622222 6.716995239 25.4940033 -5.42300415
lowerback  16.24250031 6.050640106 -0.1845919937
upperback  4.910999775 7.794109821 -3.854710102
thorax  -3.260940075 3.908390045 -5.401070118
lowerneck  1.473369956 -0.395938009 -6.085410118
upperneck  11.91559982 -1.848440051 16.79400063
head  3.413510084 -0.4551950097 6.181109905
lclavicle  0 -9.442270133e-015 7.951389973e-016
lhumerus  8.195819855 -11.11270046 66.48290253
lradius  2.418793418e-031 -2.57260227e-031 133.2350006
lwrist  0 -2.648343779e-031 18.01729965
lhand  -1.496451383e-031 -27.76390076 20.11240005
lfingers  90 7.125020027 -90
lthumb  89.89689403 5.08795885 91.16245106
rclavicle  0 -9.442270133e-015 7.951389973e-016
rhumerus  35.40000153 -20.50889969 -30.20560074
rradius  2.167512694e-031 2.787603407e-031 52.13299942
rwrist  0 -0 -2.882999897
rhand  -7.920061211e-032 -33.2840004 9.303460121
rfingers  -90 -7.125020027 -90
rthumb  -92.93752616 -24.25625642 -97.11982154
rfemur  -4.183030128 -2.233210087 23.23509979
rtibia  -0 0 51.09949875
rfoot  -0 -31.6215992 -22.35350037
rtoes  5.373923086 19.29304026 -105.8922705
lfemur  -61.0007019 -13.07769966 -6.353290081
ltibia  -0 0 49.69960022
lfoot  -0 4.168930054 -9.183650017
ltoes  -4.250644065 -19.5611806 -102.515957
